<svg width="24" height="24" viewBox="0 0 24 24" fill="none" xmlns="http://www.w3.org/2000/svg">
<path d="M11 19.0303C11 19.5826 11.4477 20.0303 12 20.0303C12.5523 20.0303 13 19.5826 13 19.0303L13 5.03027C13 4.47799 12.5523 4.03027 12 4.03027C11.4477 4.03027 11 4.47799 11 5.03027L11 19.0303Z" fill="#90C947"/>
<path d="M19 13.0303C19.5523 13.0303 20 12.5826 20 12.0303C20 11.478 19.5523 11.0303 19 11.0303L5 11.0303C4.44772 11.0303 4 11.478 4 12.0303C4 12.5826 4.44772 13.0303 5 13.0303L19 13.0303Z" fill="#90C947"/>
</svg>
