<svg width="64" height="64" viewBox="0 0 64 64" fill="none" xmlns="http://www.w3.org/2000/svg">
<path fill-rule="evenodd" clip-rule="evenodd" d="M21.2709 12.1584L22.9444 18.518C23.4069 20.2752 24.9957 21.5 26.8127 21.5H37.1874C39.0045 21.5 40.5933 20.2752 41.0557 18.518L42.7293 12.1584C42.9503 12.1863 43.1668 12.2146 43.3787 12.2433L43.6585 11.6837C43.8602 11.2804 44.3068 11.0619 44.749 11.1504L47.3923 11.679C48.1931 11.8392 48.8017 12.4645 48.9598 13.2397C49.0187 13.2534 49.0753 13.2667 49.1294 13.2795C49.6879 13.412 50.139 13.7922 50.3704 14.3175C51.5277 16.9447 55.0001 25.4171 55.0001 32.5006C55.0001 41.0006 52.0001 41.0006 52.0001 41.0006H49.5937C49.2278 41.0006 48.891 40.8007 48.7158 40.4794L44.1371 32.0852C43.4362 30.8001 42.0885 30.0006 40.6247 30.0006H23.3755C21.9117 30.0006 20.564 30.8001 19.863 32.0852L15.2843 40.4794C15.1091 40.8007 14.7724 41.0006 14.4064 41.0006H12.0001C12.0001 41.0006 9.00007 41.0006 9.00007 32.5006C9.00007 25.4171 12.4724 16.9447 13.6298 14.3175C13.8612 13.7922 14.3122 13.412 14.8708 13.2795C14.9249 13.2667 14.9814 13.2534 15.0404 13.2397C15.1984 12.4645 15.807 11.8392 16.6078 11.679L19.2511 11.1504C19.6933 11.0619 20.14 11.2804 20.3417 11.6837L20.6214 12.2433C20.8334 12.2146 21.0499 12.1863 21.2709 12.1584ZM23.2791 11.9308L24.8786 18.009C25.1098 18.8876 25.9042 19.5 26.8127 19.5H37.1874C38.0959 19.5 38.8903 18.8876 39.1216 18.009L40.7211 11.9308C38.226 11.6797 35.2922 11.5006 32.0001 11.5006C28.708 11.5006 25.7742 11.6797 23.2791 11.9308ZM17.6619 46.8087C16.3731 45.8714 14.6271 45.8714 13.3382 46.8087L10.5882 48.8087C10.1416 49.1336 9.51617 49.0348 9.19133 48.5882C8.8665 48.1415 8.96525 47.5161 9.4119 47.1913L12.1619 45.1913C14.152 43.7439 16.8481 43.7439 18.8382 45.1913C20.1271 46.1286 21.8731 46.1286 23.1619 45.1913C25.152 43.7439 27.8481 43.7439 29.8382 45.1913C31.1271 46.1286 32.8731 46.1286 34.1619 45.1913C36.152 43.7439 38.8481 43.7439 40.8382 45.1913C42.1271 46.1286 43.8731 46.1286 45.1619 45.1913C47.152 43.7439 49.8481 43.7439 51.8382 45.1913L54.5882 47.1913C55.0349 47.5161 55.1336 48.1415 54.8088 48.5882C54.484 49.0348 53.8586 49.1336 53.4119 48.8087L50.6619 46.8087C49.3731 45.8714 47.6271 45.8714 46.3382 46.8087C44.3481 48.2561 41.652 48.2561 39.6619 46.8087C38.3731 45.8714 36.6271 45.8714 35.3382 46.8087C33.3481 48.2561 30.652 48.2561 28.6619 46.8087C27.3731 45.8714 25.6271 45.8714 24.3382 46.8087C22.3481 48.2561 19.652 48.2561 17.6619 46.8087ZM13.3382 51.8087C14.6271 50.8714 16.3731 50.8714 17.6619 51.8087C19.652 53.2561 22.3481 53.2561 24.3382 51.8087C25.6271 50.8714 27.3731 50.8714 28.6619 51.8087C30.652 53.2561 33.3481 53.2561 35.3382 51.8087C36.6271 50.8714 38.3731 50.8714 39.6619 51.8087C41.652 53.2561 44.3481 53.2561 46.3382 51.8087C47.6271 50.8714 49.3731 50.8714 50.6619 51.8087L53.4119 53.8087C53.8586 54.1336 54.484 54.0348 54.8088 53.5882C55.1336 53.1415 55.0349 52.5161 54.5882 52.1913L51.8382 50.1913C49.8481 48.7439 47.152 48.7439 45.1619 50.1913C43.8731 51.1286 42.1271 51.1286 40.8382 50.1913C38.8481 48.7439 36.152 48.7439 34.1619 50.1913C32.8731 51.1286 31.1271 51.1286 29.8382 50.1913C27.8481 48.7439 25.152 48.7439 23.1619 50.1913C21.8731 51.1286 20.1271 51.1286 18.8382 50.1913C16.8481 48.7439 14.152 48.7439 12.1619 50.1913L9.4119 52.1913C8.96525 52.5161 8.8665 53.1415 9.19133 53.5882C9.51617 54.0348 10.1416 54.1336 10.5882 53.8087L13.3382 51.8087Z" fill="#0133CF"/>
</svg>
