<svg width="65" height="64" viewBox="0 0 65 64" fill="none" xmlns="http://www.w3.org/2000/svg">
<path fill-rule="evenodd" clip-rule="evenodd" d="M11.0413 10.2191L11.666 11L13.3562 11.1162C13.0686 11.2685 12.8326 11.4116 12.6555 11.5265C12.527 11.6098 12.4304 11.6778 12.3684 11.7228C12.3375 11.7453 12.3153 11.762 12.3022 11.772L12.2895 11.7819L12.2898 11.7816L12.2891 11.7822L12.2895 11.7819L12.2886 11.7826C11.8574 12.1256 11.2296 12.0552 10.8851 11.6247C10.5401 11.1934 10.6101 10.5641 11.0413 10.2191ZM13.3563 11.1162L13.3562 11.1162L23.0429 11.7822L23.043 11.7822C23.4742 12.1257 24.1023 12.0554 24.4469 11.6247C24.7919 11.1934 24.722 10.5641 24.2907 10.2191L23.666 11C24.2907 10.2191 24.2904 10.2189 24.2902 10.2187L24.2896 10.2182L24.2882 10.2171L24.2847 10.2143L24.2749 10.2067L24.2443 10.183C24.2191 10.1637 24.1842 10.1375 24.1399 10.1053C24.0515 10.041 23.9255 9.9527 23.7649 9.84854C23.4442 9.64054 22.9828 9.3674 22.4043 9.09518C21.2519 8.55287 19.6045 8 17.666 8C15.7275 8 14.0801 8.55287 12.9277 9.09518C12.3493 9.3674 11.8878 9.64054 11.5671 9.84854C11.4066 9.9527 11.2806 10.041 11.1921 10.1053C11.1478 10.1375 11.1129 10.1637 11.0877 10.183L11.0571 10.2067L11.0474 10.2143L11.0439 10.2171L11.0425 10.2182L11.0419 10.2187C11.0416 10.2189 11.0413 10.2191 11.666 11L13.3563 11.1162ZM13.3563 11.1162L23.0426 11.7819L23.0424 11.7817L23.0298 11.772C23.0167 11.762 22.9945 11.7453 22.9636 11.7228C22.9017 11.6778 22.805 11.6098 22.6765 11.5265C22.4191 11.3595 22.0368 11.1326 21.5527 10.9048C20.5801 10.4471 19.2275 10 17.666 10C16.1045 10 14.7519 10.4471 13.7793 10.9048C13.6281 10.976 13.4869 11.047 13.3563 11.1162ZM14.2201 15.8325L14.2155 15.8355L14.2155 15.8355C13.7565 16.1375 13.1391 16.0125 12.834 15.5547C12.5276 15.0952 12.6518 14.4743 13.1113 14.1679L13.666 15C13.1113 14.1679 13.1116 14.1677 13.112 14.1675L13.1126 14.1671L13.1141 14.1661L13.1175 14.1639L13.1259 14.1584L13.1495 14.1433C13.1682 14.1314 13.1929 14.1162 13.2235 14.0979C13.2847 14.0615 13.3695 14.0132 13.4769 13.9572C13.6915 13.8452 13.9975 13.7018 14.3868 13.5602C15.1655 13.277 16.2815 13 17.666 13C19.0506 13 20.1665 13.277 20.9453 13.5602C21.3346 13.7018 21.6405 13.8452 21.8551 13.9572C21.9625 14.0132 22.0473 14.0615 22.1085 14.0979C22.1391 14.1162 22.1638 14.1314 22.1826 14.1433L22.2062 14.1584L22.2146 14.1639L22.2179 14.1661L22.2194 14.1671L22.2201 14.1675C22.2204 14.1677 22.2207 14.1679 21.6868 14.9688L22.2207 14.1679C22.6802 14.4743 22.8044 15.0952 22.4981 15.5547C22.1929 16.0125 21.5756 16.1375 21.1166 15.8355L21.1166 15.8355L14.2155 15.8355L14.2175 15.8343L14.2203 15.8325L21.111 15.8321L21.1146 15.8343L21.1136 15.8335L21.1125 15.8328L21.1119 15.8325C21.1116 15.8323 21.1113 15.8321 21.666 15L21.1113 15.8321H21.111C21.1057 15.8287 21.097 15.8233 21.0849 15.8161C21.0543 15.7979 21.0023 15.7681 20.93 15.7303C20.7853 15.6548 20.56 15.5482 20.2618 15.4398C19.6655 15.223 18.7815 15 17.666 15C16.5506 15 15.6665 15.223 15.0703 15.4398C14.7721 15.5482 14.5468 15.6548 14.402 15.7303C14.3297 15.7681 14.2778 15.7979 14.2472 15.8161C14.2346 15.8236 14.2256 15.8292 14.2203 15.8325H14.2201ZM14.666 19C14.666 18.4477 15.1137 18 15.666 18H19.666C20.2183 18 20.666 18.4477 20.666 19C20.666 19.5523 20.2183 20 19.666 20H15.666C15.1137 20 14.666 19.5523 14.666 19ZM44.666 19C44.666 18.4477 45.1137 18 45.666 18H49.666C50.2183 18 50.666 18.4477 50.666 19C50.666 19.5523 50.2183 20 49.666 20H45.666C45.1137 20 44.666 19.5523 44.666 19ZM44.2175 15.8343L44.2201 15.8325H44.2203L44.2175 15.8343ZM51.111 15.8321L44.2203 15.8325C44.2256 15.8292 44.2346 15.8236 44.2472 15.8161C44.2778 15.7979 44.3297 15.7681 44.402 15.7303C44.5468 15.6548 44.7721 15.5482 45.0703 15.4398C45.6665 15.223 46.5506 15 47.666 15C48.7815 15 49.6655 15.223 50.2618 15.4398C50.56 15.5482 50.7853 15.6548 50.93 15.7303C51.0023 15.7681 51.0543 15.7979 51.0849 15.8161L51.1044 15.8279L51.111 15.8321ZM51.111 15.8321H51.1113L51.666 15C51.1113 15.8321 51.1116 15.8323 51.1119 15.8325L51.1125 15.8328L51.1136 15.8335L51.1146 15.8343L51.111 15.8321ZM52.4981 15.5547C52.1929 16.0125 51.5756 16.1375 51.1166 15.8355L44.2155 15.8355C43.7565 16.1375 43.1391 16.0125 42.834 15.5547C42.5276 15.0952 42.6518 14.4743 43.1113 14.1679L43.666 15C43.1113 14.1679 43.1116 14.1677 43.112 14.1675L43.1126 14.1671L43.1141 14.1661L43.1175 14.1639L43.1259 14.1584L43.1495 14.1433C43.1682 14.1314 43.1929 14.1162 43.2235 14.0979C43.2847 14.0615 43.3695 14.0132 43.4769 13.9572C43.6915 13.8452 43.9975 13.7018 44.3868 13.5602C45.1655 13.277 46.2815 13 47.666 13C49.0506 13 50.1665 13.277 50.9453 13.5602C51.3346 13.7018 51.6405 13.8452 51.8551 13.9572C51.9625 14.0132 52.0473 14.0615 52.1085 14.0979C52.1391 14.1162 52.1638 14.1314 52.1826 14.1433L52.2062 14.1584L52.2146 14.1639L52.2179 14.1661L52.2194 14.1671L52.2201 14.1675C52.2204 14.1677 52.2207 14.1679 51.6868 14.9688L52.2207 14.1679C52.6802 14.4743 52.8044 15.0952 52.4981 15.5547ZM41.666 11L41.0413 10.2191C40.6101 10.5641 40.5401 11.1934 40.8851 11.6247C41.23 12.0558 41.859 12.1258 42.2902 11.7813L42.3022 11.772C42.3153 11.762 42.3375 11.7453 42.3684 11.7228C42.4304 11.6778 42.527 11.6098 42.6555 11.5265C42.8326 11.4116 43.0686 11.2685 43.3562 11.1162L53.043 11.7822L53.0431 11.7823L53.0435 11.7826C53.4747 12.1256 54.1024 12.0552 54.4469 11.6247C54.7919 11.1934 54.722 10.5641 54.2907 10.2191L53.666 11C54.2907 10.2191 54.2904 10.2189 54.2902 10.2187L54.2896 10.2182L54.2882 10.2171L54.2847 10.2143L54.2749 10.2067L54.2443 10.183C54.2191 10.1637 54.1842 10.1375 54.1399 10.1053C54.0515 10.041 53.9255 9.9527 53.7649 9.84854C53.4442 9.64054 52.9828 9.3674 52.4043 9.09518C51.2519 8.55287 49.6045 8 47.666 8C45.7275 8 44.0801 8.55287 42.9277 9.09518C42.3493 9.3674 41.8878 9.64054 41.5671 9.84854C41.4066 9.9527 41.2806 10.041 41.1921 10.1053C41.1478 10.1375 41.1129 10.1637 41.0877 10.183L41.0571 10.2067L41.0474 10.2143L41.0439 10.2171L41.0425 10.2182L41.0419 10.2187C41.0416 10.2189 41.0413 10.2191 41.666 11ZM43.3563 11.1162C43.4869 11.047 43.6281 10.976 43.7793 10.9048C44.7519 10.4471 46.1045 10 47.666 10C49.2275 10 50.5801 10.4471 51.5527 10.9048C52.0368 11.1326 52.4191 11.3595 52.6765 11.5265C52.805 11.6098 52.9017 11.6778 52.9636 11.7228C52.9945 11.7453 53.0167 11.762 53.0298 11.772L53.042 11.7814L53.0423 11.7816L53.0424 11.7817L53.0426 11.7819L43.3563 11.1162ZM43.3563 11.1162L41.666 11L43.3562 11.1162L43.3563 11.1162ZM23.6104 30.516L21.9368 24.1564C21.7158 24.1843 21.4993 24.2127 21.2874 24.2413L21.0076 23.6818C20.8059 23.2784 20.3592 23.06 19.9171 23.1484L17.2738 23.6771C16.473 23.8372 15.8644 24.4625 15.7063 25.2378C15.6473 25.2515 15.5908 25.2648 15.5367 25.2776C14.9782 25.4101 14.5271 25.7903 14.2957 26.3156C13.1384 28.9427 9.66602 37.4151 9.66602 44.4986C9.66602 52.9986 12.666 52.9986 12.666 52.9986H15.0724C15.4383 52.9986 15.775 52.7987 15.9503 52.4775L20.529 44.0832C21.2299 42.7982 22.5776 41.9986 24.0414 41.9986H41.2906C42.7544 41.9986 44.1021 42.7982 44.8031 44.0832L49.3818 52.4775C49.557 52.7987 49.8937 52.9986 50.2596 52.9986H52.666C52.666 52.9986 55.666 52.9986 55.666 44.4986C55.666 37.4151 52.1937 28.9427 51.0363 26.3156C50.8049 25.7903 50.3539 25.4101 49.7953 25.2776L49.7117 25.2579L49.6257 25.2378C49.4677 24.4625 48.8591 23.8372 48.0582 23.6771L45.415 23.1484C44.9728 23.06 44.5261 23.2784 44.3244 23.6818L44.0447 24.2413C43.8327 24.2127 43.6162 24.1843 43.3952 24.1564L41.7216 30.516C41.2592 32.2733 39.6704 33.498 37.8533 33.498H27.4787C25.6616 33.498 24.0728 32.2733 23.6104 30.516ZM25.5445 30.007L23.945 23.9288C26.4401 23.6777 29.3739 23.4986 32.666 23.4986C35.9581 23.4986 38.8919 23.6777 41.387 23.9288L39.7875 30.007C39.5563 30.8857 38.7619 31.498 37.8533 31.498H27.4787C26.5701 31.498 25.7757 30.8857 25.5445 30.007Z" fill="#0133CF"/>
</svg>
