<svg width="65" height="64" viewBox="0 0 65 64" fill="none" xmlns="http://www.w3.org/2000/svg">
<path fill-rule="evenodd" clip-rule="evenodd" d="M23.2769 22.518L21.6033 16.1584C21.3823 16.1863 21.1658 16.2146 20.9539 16.2433L20.6741 15.6837C20.4724 15.2804 20.0258 15.0619 19.5836 15.1504L16.9403 15.679C16.1395 15.8392 15.5309 16.4645 15.3728 17.2397C15.3139 17.2534 15.2573 17.2667 15.2032 17.2795C14.6447 17.412 14.1936 17.7922 13.9622 18.3175C12.8049 20.9447 9.33254 29.4171 9.33254 36.5006C9.33254 45.0006 12.3325 45.0006 12.3325 45.0006H14.7389C15.1049 45.0006 15.4416 44.8007 15.6168 44.4794L20.1955 36.0852C20.8964 34.8001 22.2441 34.0006 23.7079 34.0006H40.9572C42.4209 34.0006 43.7687 34.8001 44.4696 36.0852L49.0483 44.4794C49.2235 44.8007 49.5602 45.0006 49.9262 45.0006H52.3325C52.3325 45.0006 55.3325 45.0006 55.3325 36.5006C55.3325 29.4171 51.8602 20.9447 50.7028 18.3175C50.4714 17.7922 50.0204 17.412 49.4619 17.2795C49.4078 17.2667 49.3512 17.2534 49.2922 17.2397C49.1342 16.4645 48.5256 15.8392 47.7248 15.679L45.0815 15.1504C44.6393 15.0619 44.1926 15.2804 43.991 15.6837L43.7112 16.2433C43.4993 16.2146 43.2827 16.1863 43.0618 16.1584L41.3882 22.518C40.9257 24.2752 39.337 25.5 37.5199 25.5H27.1452C25.3281 25.5 23.7393 24.2752 23.2769 22.518ZM25.2111 22.009L23.6115 15.9308C26.1066 15.6797 29.0405 15.5006 32.3325 15.5006C35.6246 15.5006 38.5584 15.6797 41.0536 15.9308L39.454 22.009C39.2228 22.8876 38.4284 23.5 37.5199 23.5H27.1452C26.2367 23.5 25.4423 22.8876 25.2111 22.009ZM5.46918 35.8589C5.39859 35.2489 5.36231 34.6284 5.36231 33.9995C5.36231 33.6738 5.37204 33.3503 5.39124 33.0293C2.91945 35.2273 1.3623 38.4316 1.3623 41.9995C1.3623 48.6269 6.73489 53.9995 13.3623 53.9995C16.9302 53.9995 20.1345 52.4424 22.3325 49.9706C22.0116 49.9898 21.6881 49.9995 21.3623 49.9995C20.7334 49.9995 20.113 49.9632 19.503 49.8927C17.8082 51.213 15.6771 51.9995 13.3623 51.9995C7.83946 51.9995 3.36231 47.5224 3.36231 41.9995C3.36231 39.6847 4.14882 37.5536 5.46918 35.8589ZM16.6508 49.2946C15.6477 49.7475 14.5344 49.9995 13.3623 49.9995C8.94403 49.9995 5.36231 46.4178 5.36231 41.9995C5.36231 40.8274 5.61438 39.7142 6.06728 38.711C6.39598 39.7794 6.83354 40.8 7.367 41.76C7.36388 41.8395 7.36231 41.9193 7.36231 41.9995C7.36231 45.3132 10.0486 47.9995 13.3623 47.9995C13.4425 47.9995 13.5224 47.998 13.6018 47.9948C14.5618 48.5283 15.5825 48.9659 16.6508 49.2946ZM59.2252 35.8589C59.2958 35.2489 59.3321 34.6284 59.3321 33.9995C59.3321 33.6738 59.3223 33.3503 59.3031 33.0293C61.7749 35.2273 63.3321 38.4316 63.3321 41.9995C63.3321 48.6269 57.9595 53.9995 51.3321 53.9995C47.7641 53.9995 44.5599 52.4424 42.3618 49.9706C42.6828 49.9898 43.0063 49.9995 43.3321 49.9995C43.961 49.9995 44.5814 49.9632 45.1914 49.8927C46.8862 51.213 49.0173 51.9995 51.3321 51.9995C56.8549 51.9995 61.3321 47.5224 61.3321 41.9995C61.3321 39.6847 60.5456 37.5536 59.2252 35.8589ZM48.0436 49.2946C49.0467 49.7475 50.1599 49.9995 51.3321 49.9995C55.7503 49.9995 59.3321 46.4178 59.3321 41.9995C59.3321 40.8274 59.08 39.7142 58.6271 38.711C58.2984 39.7794 57.8608 40.8 57.3274 41.76C57.3305 41.8395 57.3321 41.9193 57.3321 41.9995C57.3321 45.3132 54.6458 47.9995 51.3321 47.9995C51.2519 47.9995 51.172 47.998 51.0925 47.9948C50.1325 48.5283 49.1119 48.9659 48.0436 49.2946Z" fill="#0133CF"/>
</svg>
