<svg width="65" height="64" viewBox="0 0 65 64" fill="none" xmlns="http://www.w3.org/2000/svg">
<path fill-rule="evenodd" clip-rule="evenodd" d="M35.668 7C35.668 5.34315 34.3249 4 32.668 4C31.0112 4 29.668 5.34315 29.668 7V10C29.668 11.6569 31.0112 13 32.668 13C34.3249 13 35.668 11.6569 35.668 10V7ZM32.668 16C24.3838 16 17.668 22.7157 17.668 31V31.34C17.668 35.0854 19.0384 38.7015 21.5207 41.5063L21.7336 41.7469C23.0349 43.2174 23.8836 45.0325 24.1775 46.974L24.7941 51.0476C25.3122 54.4701 28.2538 57 31.7153 57H33.6208C37.0822 57 40.0239 54.4701 40.542 51.0477L41.1586 46.974C41.4525 45.0325 42.3011 43.2174 43.6025 41.7469L43.8154 41.5063C46.2977 38.7015 47.668 35.0854 47.668 31.34V31C47.668 22.7157 40.9523 16 32.668 16ZM23.668 31C23.668 26.0294 27.6975 22 32.668 22C37.6386 22 41.668 26.0294 41.668 31V31.34C41.668 33.6204 40.8337 35.8222 39.3223 37.5299L39.1094 37.7705C37.0416 40.1069 35.6931 42.9911 35.2262 46.076L34.6095 50.1497C34.5355 50.6386 34.1153 51 33.6208 51H31.7153C31.2208 51 30.8005 50.6386 30.7265 50.1497L30.1099 46.076C29.643 42.9911 28.2945 40.1069 26.2267 37.7705L26.0138 37.5299C24.5024 35.8222 23.668 33.6204 23.668 31.34V31ZM47.5612 8.05148C48.8305 9.11648 48.996 11.0087 47.931 12.278L46.0027 14.5761C44.9376 15.8453 43.0454 16.0109 41.7762 14.9459C40.5069 13.8809 40.3414 11.9886 41.4064 10.7194L43.3347 8.42125C44.3998 7.15202 46.292 6.98647 47.5612 8.05148ZM22.0013 8.42125C20.9363 7.15202 19.0441 6.98647 17.7748 8.05148C16.5056 9.11648 16.3401 11.0087 17.4051 12.278L19.3334 14.5761C20.3984 15.8453 22.2907 16.0109 23.5599 14.9459C24.8291 13.8809 24.9947 11.9886 23.9297 10.7194L22.0013 8.42125Z" fill="#1C61E7"/>
</svg>
