<svg width="65" height="64" viewBox="0 0 65 64" fill="none" xmlns="http://www.w3.org/2000/svg">
<path fill-rule="evenodd" clip-rule="evenodd" d="M13.334 12C8.91571 12 5.33398 15.5817 5.33398 20V44C5.33398 48.4183 8.91571 52 13.334 52H51.334C55.7523 52 59.334 48.4183 59.334 44V20C59.334 15.5817 55.7523 12 51.334 12H13.334ZM11.334 20C11.334 18.8954 12.2294 18 13.334 18H51.334C52.4386 18 53.334 18.8954 53.334 20V44C53.334 45.1046 52.4386 46 51.334 46H13.334C12.2294 46 11.334 45.1046 11.334 44V20ZM47.6756 27.6833C49.1576 26.9423 49.7582 25.1403 49.0173 23.6584C48.2763 22.1764 46.4743 21.5758 44.9923 22.3167L16.9923 36.3167C15.5104 37.0577 14.9097 38.8597 15.6507 40.3416C16.3917 41.8236 18.1937 42.4242 19.6756 41.6833L47.6756 27.6833Z" fill="#1C61E7"/>
</svg>
