<svg width="64" height="64" viewBox="0 0 64 64" fill="none" xmlns="http://www.w3.org/2000/svg">
<path fill-rule="evenodd" clip-rule="evenodd" d="M13.1035 11.6524C11.6686 12.4809 11.177 14.3156 12.0054 15.7505C12.8339 17.1854 14.6686 17.677 16.1035 16.8486L23.8977 12.3486C25.3326 11.5202 25.8242 9.68538 24.9958 8.2505C24.1674 6.81562 22.3326 6.324 20.8977 7.15242L13.1035 11.6524ZM39.0054 8.2505C39.8339 6.81562 41.6686 6.324 43.1035 7.15242L50.8977 11.6524C52.3326 12.4809 52.8242 14.3156 51.9958 15.7505C51.1674 17.1854 49.3326 17.677 47.8977 16.8486L40.1035 12.3486C38.6686 11.5202 38.177 9.68538 39.0054 8.2505ZM48 35.0005C48 43.8371 40.8366 51.0005 32 51.0005C23.1634 51.0005 16 43.8371 16 35.0005C16 26.1639 23.1634 19.0005 32 19.0005C40.8366 19.0005 48 26.1639 48 35.0005ZM32 57.0005C44.1503 57.0005 54 47.1508 54 35.0005C54 22.8502 44.1503 13.0005 32 13.0005C19.8497 13.0005 10 22.8502 10 35.0005C10 47.1508 19.8497 57.0005 32 57.0005ZM38.6168 23.8104C36.613 22.6256 34.3279 22.0005 32 22.0005V35.0005L43.3912 28.7362C42.2694 26.6964 40.6206 24.9953 38.6168 23.8104Z" fill="#1C61E7"/>
</svg>
